<?xml version="1.0" encoding="UTF-8"?>
<svg xmlns="http://www.w3.org/2000/svg" id="Outline" viewBox="0 0 512 512" width="512" height="512"><path d="M488,480a48.055,48.055,0,0,1-48-48V88a64.072,64.072,0,0,0-64-64H48a8,8,0,0,0,0,16A48.055,48.055,0,0,1,96,88V283.835L19.412,337.446a8,8,0,0,0-2.068,10.992l16,24a8,8,0,0,0,11.094,2.218L48,372.281V488a8,8,0,0,0,8,8H488a8,8,0,0,0,0-16ZM90.289,40H376a48.055,48.055,0,0,1,48,48V347a95.932,95.932,0,0,0-114.194-36.7L188.588,225.446a8,8,0,0,0-9.176,0L112,272.635V88A63.872,63.872,0,0,0,90.289,40ZM42.219,356.906l-7.225-10.837L184,241.765,293.482,318.4a96.559,96.559,0,0,0-12.109,8.9l-92.935-61.956a8,8,0,0,0-8.876,0ZM208,480H160V368a16.019,16.019,0,0,1,16-16h16a16.019,16.019,0,0,1,16,16Zm16,0V368a32.036,32.036,0,0,0-32-32H176a32.036,32.036,0,0,0-32,32V480H64V361.615l120-80,85.98,57.319A95.881,95.881,0,0,0,291,480Zm40-80a80,80,0,1,1,80,80A80.091,80.091,0,0,1,264,400Zm133,80a96.738,96.738,0,0,0,29.363-30.738A64.136,64.136,0,0,0,445.711,480Z"/><path d="M120,368H88a8,8,0,0,0-8,8v32a8,8,0,0,0,8,8h32a8,8,0,0,0,8-8V376A8,8,0,0,0,120,368Zm-8,32H96V384h16Z"/><path d="M344,376h16a8,8,0,0,0,0-16h-8v-8a8,8,0,0,0-16,0v9.376A24,24,0,0,0,344,408a8,8,0,0,1,0,16H328a8,8,0,0,0,0,16h8v8a8,8,0,0,0,16,0v-9.376A24,24,0,0,0,344,392a8,8,0,0,1,0-16Z"/><path d="M144,112H392a8,8,0,0,0,8-8V72a8,8,0,0,0-8-8H144a8,8,0,0,0-8,8v32A8,8,0,0,0,144,112Zm8-32H384V96H152Z"/><path d="M384,128H152a8,8,0,0,0,0,16H384a8,8,0,0,0,0-16Z"/><path d="M384,160H152a8,8,0,0,0,0,16H384a8,8,0,0,0,0-16Z"/><path d="M384,192H152a8,8,0,0,0,0,16H384a8,8,0,0,0,0-16Z"/><path d="M384,224H272a8,8,0,0,0,0,16H384a8,8,0,0,0,0-16Z"/></svg>
