<svg xmlns="http://www.w3.org/2000/svg" width="56" height="60" fill="none" viewBox="0 0 56 60">
    <path fill="#303030" d="M32.594 58.665c0 .603.505 1.09 1.126 1.09h16.978c.621 0 1.126-.487 1.126-1.09v-21.51c0-.603-.505-1.09-1.126-1.09-.622 0-1.126.487-1.126 1.09v20.42H34.846V46.199c0-.602-.505-1.09-1.126-1.09H22.674c-.621 0-1.125.487-1.125 1.09V57.82H6.633V35.687c0-.603-.504-1.09-1.125-1.09-.622 0-1.126.487-1.126 1.09V58.91c0 .603.504 1.09 1.126 1.09h17.167c.62 0 1.125-.487 1.125-1.09V47.29h8.794v11.375z"/>
    <path fill="#303030" fill-rule="evenodd" d="M.43 31.655l11.84-9.031v2.774L1.821 33.365c-.486.374-1.195.291-1.58-.18-.385-.474-.301-1.158.187-1.531zm53.707 2.434l-10.319-8.093v-2.805l11.736 9.205c.483.378.557 1.065.165 1.532-.221.266-.547.404-.874.404-.25 0-.5-.08-.708-.243z" clip-rule="evenodd"/>
    <path fill="#D8232A" d="M28.044 28.066l-1.907-1.735c-6.77-6.14-11.239-10.188-11.239-15.157 0-4.049 3.181-7.23 7.23-7.23 2.288 0 4.483 1.065 5.916 2.747 1.433-1.682 3.628-2.747 5.915-2.747 4.049 0 7.23 3.181 7.23 7.23 0 4.969-4.47 9.018-11.24 15.17l-1.905 1.722z"/>
</svg>
