<svg id="Capa_1" enable-background="new 0 0 512 512" height="512" viewBox="0 0 512 512" width="512" xmlns="http://www.w3.org/2000/svg"><g><g><path d="m256 22c-135.31 0-245 109.69-245 245 0 62.113 23.126 118.816 61.222 162l3.829 1h359.899l3.829-1c38.095-43.184 61.221-99.887 61.221-162 0-135.31-109.69-245-245-245z" fill="#d8ecfe"/><path d="m410 0h-159.758c-5.523 0-10 4.477-10 10v98.653h1.533c4.963 0 9 4.038 9 9v18.347h75.311c1.967 0 3.567 1.6 3.567 3.567v15.082h5.646c2.401 0 4.354 1.954 4.354 4.355v17.996h5.676c2.206 0 4 1.794 4 4v249h70.671v-420c0-5.523-4.477-10-10-10z" fill="#4f66d0"/><g><path d="m241.776 107.653c5.523 0 10 4.477 10 10v17.347h31.224v-125c0-5.523 4.477-10 10-10h-42.758c-5.523 0-10 4.477-10 10v97.653z" fill="#314dc9"/></g><g><path d="m273.621 70h23c1.657 0 3-1.343 3-3v-23c0-1.657-1.343-3-3-3h-23c-1.657 0-3 1.343-3 3v23c0 1.657 1.343 3 3 3z" fill="#ffc344"/><path d="m283 67v-23c0-1.657 1.343-3 3-3h-12.379c-1.657 0-3 1.343-3 3v23c0 1.657 1.343 3 3 3h12.379c-1.657 0-3-1.343-3-3z" fill="#f6ab31"/><g fill="#ffc344"><path d="m318.621 70h23c1.657 0 3-1.343 3-3v-23c0-1.657-1.343-3-3-3h-23c-1.657 0-3 1.343-3 3v23c0 1.657 1.343 3 3 3z"/><path d="m360.621 44v23c0 1.657 1.343 3 3 3h23c1.657 0 3-1.343 3-3v-23c0-1.657-1.343-3-3-3h-23c-1.657 0-3 1.343-3 3z"/><path d="m273.621 117h23c1.657 0 3-1.343 3-3v-23c0-1.657-1.343-3-3-3h-23c-1.657 0-3 1.343-3 3v23c0 1.657 1.343 3 3 3z"/></g><path d="m283 114v-23c0-1.657 1.343-3 3-3h-12.379c-1.657 0-3 1.343-3 3v23c0 1.657 1.343 3 3 3h12.379c-1.657 0-3-1.343-3-3z" fill="#f6ab31"/><path d="m318.621 117h23c1.657 0 3-1.343 3-3v-23c0-1.657-1.343-3-3-3h-23c-1.657 0-3 1.343-3 3v23c0 1.657 1.343 3 3 3z" fill="#ffc344"/><path d="m328 67v-23c0-1.657 1.343-3 3-3h-12.379c-1.657 0-3 1.343-3 3v23c0 1.657 1.343 3 3 3h12.379c-1.657 0-3-1.343-3-3z" fill="#f6ab31"/><path d="m328 114v-23c0-1.657 1.343-3 3-3h-12.379c-1.657 0-3 1.343-3 3v23c0 1.657 1.343 3 3 3h12.379c-1.657 0-3-1.343-3-3z" fill="#f6ab31"/><path d="m363.621 117h23c1.657 0 3-1.343 3-3v-23c0-1.657-1.343-3-3-3h-23c-1.657 0-3 1.343-3 3v23c0 1.657 1.343 3 3 3z" fill="#ffc344"/><path d="m373 67v-23c0-1.657 1.343-3 3-3h-12.379c-1.657 0-3 1.343-3 3v23c0 1.657 1.343 3 3 3h12.379c-1.657 0-3-1.343-3-3z" fill="#f6ab31"/><path d="m373 114v-23c0-1.657 1.343-3 3-3h-12.379c-1.657 0-3 1.343-3 3v23c0 1.657 1.343 3 3 3h12.379c-1.657 0-3-1.343-3-3z" fill="#f6ab31"/><path d="m363.621 164h23c1.657 0 3-1.343 3-3v-23c0-1.657-1.343-3-3-3h-23c-1.657 0-3 1.343-3 3v23c0 1.657 1.343 3 3 3z" fill="#ffc344"/><path d="m373 161v-23c0-1.657 1.343-3 3-3h-12.379c-1.657 0-3 1.343-3 3v23c0 1.657 1.343 3 3 3h12.379c-1.657 0-3-1.343-3-3z" fill="#f6ab31"/><path d="m363.621 211h23c1.657 0 3-1.343 3-3v-23c0-1.657-1.343-3-3-3h-23c-1.657 0-3 1.343-3 3v23c0 1.657 1.343 3 3 3z" fill="#ffc344"/><path d="m373 208v-23c0-1.657 1.343-3 3-3h-12.379c-1.657 0-3 1.343-3 3v23c0 1.657 1.343 3 3 3h12.379c-1.657 0-3-1.343-3-3z" fill="#f6ab31"/><path d="m363.621 258h23c1.657 0 3-1.343 3-3v-23c0-1.657-1.343-3-3-3h-23c-1.657 0-3 1.343-3 3v23c0 1.657 1.343 3 3 3z" fill="#ffc344"/><path d="m373 255v-23c0-1.657 1.343-3 3-3h-12.379c-1.657 0-3 1.343-3 3v23c0 1.657 1.343 3 3 3h12.379c-1.657 0-3-1.343-3-3z" fill="#f6ab31"/><path d="m363.621 305h23c1.657 0 3-1.343 3-3v-23c0-1.657-1.343-3-3-3h-23c-1.657 0-3 1.343-3 3v23c0 1.657 1.343 3 3 3z" fill="#ffc344"/><path d="m373 302v-23c0-1.657 1.343-3 3-3h-12.379c-1.657 0-3 1.343-3 3v23c0 1.657 1.343 3 3 3h12.379c-1.657 0-3-1.343-3-3z" fill="#f6ab31"/></g><path d="m241.776 107.653h-68.776v135.847c0 2.206-1.794 4-4 4h-72.575v182.5h155.351v-312.347c0-5.523-4.478-10-10-10z" fill="#bec6ed"/><path d="m96.425 248.5h25.224v181.5h-25.224z" fill="#a2aee6"/><g><path d="m330.654 154.649v-15.082c0-2.523-2.045-4.568-4.568-4.568h-106.865c-2.523 0-4.568 2.045-4.568 4.568v15.082z" fill="#26a6fe"/></g><path d="m243.568 135h-24.346c-2.523 0-4.568 2.045-4.568 4.568v15.082h24.346v-15.082c0-2.523 2.045-4.568 4.568-4.568z" fill="#0593fc"/><path d="m340.654 177v-17.995c0-2.958-2.397-5.355-5.355-5.355h-125.29c-2.958 0-5.355 2.397-5.355 5.355v17.995z" fill="#60b7ff"/><path d="m234.355 153.65h-24.346c-2.958 0-5.355 2.397-5.355 5.355v17.995h24.346v-17.995c0-2.958 2.398-5.355 5.355-5.355z" fill="#26a6fe"/><path d="m350.329 430v-249c0-2.761-2.239-5-5-5h-145.351c-2.761 0-5 2.239-5 5v249z" fill="#0593fc"/><path d="m233.649 176h-33.671c-2.761 0-5 2.239-5 5v249h33.671v-249c0-2.761 2.238-5 5-5z" fill="#0182fc"/><path d="m298.422 430v-54c0-2.761-2.239-5-5-5h-41.538c-2.761 0-5 2.239-5 5v54z" fill="#8ac9fe"/><path d="m268.462 371h-16.578c-2.761 0-5 2.239-5 5v54h16.578v-54c0-2.761 2.239-5 5-5z" fill="#60b7ff"/><g><circle cx="416" cy="346" fill="#80d261" r="51"/><g><path d="m408.5 378.239c-7.184-8.785-11.5-20.004-11.5-32.239 0-22.575 14.674-41.712 35-48.425-5.034-1.662-10.409-2.575-16-2.575-28.167 0-51 22.833-51 51 0 25.618 18.89 46.818 43.5 50.446z" fill="#68ca44"/></g><path d="m423.5 430v-73c0-4.142-3.357-7.5-7.5-7.5s-7.5 3.358-7.5 7.5v73z" fill="#c57a44"/></g><path d="m72.222 429c44.894 50.89 110.581 83 183.778 83s138.884-32.11 183.778-83z" fill="#4f66d0"/><path d="m96.581 453h318.837c8.661-7.432 16.811-15.443 24.359-24h-367.555c7.549 8.557 15.698 16.568 24.359 24z" fill="#6c7fd8"/><g><path d="m243.154 234h-23c-1.657 0-3 1.343-3 3v23c0 1.657 1.343 3 3 3h23c1.657 0 3-1.343 3-3v-23c0-1.657-1.344-3-3-3z" fill="#fff"/><path d="m229 260v-23c0-1.657 1.343-3 3-3h-11.846c-1.657 0-3 1.343-3 3v23c0 1.657 1.343 3 3 3h11.846c-1.657 0-3-1.343-3-3z" fill="#f5f8f9"/><g fill="#fff"><path d="m284.154 234h-23c-1.657 0-3 1.343-3 3v23c0 1.657 1.343 3 3 3h23c1.657 0 3-1.343 3-3v-23c0-1.657-1.344-3-3-3z"/><path d="m325.154 234h-23c-1.657 0-3 1.343-3 3v23c0 1.657 1.343 3 3 3h23c1.657 0 3-1.343 3-3v-23c0-1.657-1.344-3-3-3z"/></g></g><g><path d="m243.154 277h-23c-1.657 0-3 1.343-3 3v23c0 1.657 1.343 3 3 3h23c1.657 0 3-1.343 3-3v-23c0-1.657-1.344-3-3-3z" fill="#fff"/><path d="m229 303v-23c0-1.657 1.343-3 3-3h-11.846c-1.657 0-3 1.343-3 3v23c0 1.657 1.343 3 3 3h11.846c-1.657 0-3-1.343-3-3z" fill="#f5f8f9"/><g fill="#fff"><path d="m284.154 277h-23c-1.657 0-3 1.343-3 3v23c0 1.657 1.343 3 3 3h23c1.657 0 3-1.343 3-3v-23c0-1.657-1.344-3-3-3z"/><path d="m325.154 277h-23c-1.657 0-3 1.343-3 3v23c0 1.657 1.343 3 3 3h23c1.657 0 3-1.343 3-3v-23c0-1.657-1.344-3-3-3z"/></g></g><g><path d="m243.154 320h-23c-1.657 0-3 1.343-3 3v23c0 1.657 1.343 3 3 3h23c1.657 0 3-1.343 3-3v-23c0-1.657-1.344-3-3-3z" fill="#fff"/><path d="m229 346v-23c0-1.657 1.343-3 3-3h-11.846c-1.657 0-3 1.343-3 3v23c0 1.657 1.343 3 3 3h11.846c-1.657 0-3-1.343-3-3z" fill="#f5f8f9"/><path d="m284.154 320h-23c-1.657 0-3 1.343-3 3v23c0 1.657 1.343 3 3 3h23c1.657 0 3-1.343 3-3v-23c0-1.657-1.344-3-3-3z" fill="#fff"/><g fill="#f5f8f9"><path d="m270 260v-23c0-1.657 1.343-3 3-3h-11.846c-1.657 0-3 1.343-3 3v23c0 1.657 1.343 3 3 3h11.846c-1.657 0-3-1.343-3-3z"/><path d="m270 303v-23c0-1.657 1.343-3 3-3h-11.846c-1.657 0-3 1.343-3 3v23c0 1.657 1.343 3 3 3h11.846c-1.657 0-3-1.343-3-3z"/><path d="m270 346v-23c0-1.657 1.343-3 3-3h-11.846c-1.657 0-3 1.343-3 3v23c0 1.657 1.343 3 3 3h11.846c-1.657 0-3-1.343-3-3z"/></g><path d="m325.154 320h-23c-1.657 0-3 1.343-3 3v23c0 1.657 1.343 3 3 3h23c1.657 0 3-1.343 3-3v-23c0-1.657-1.344-3-3-3z" fill="#fff"/><path d="m311 260v-23c0-1.657 1.343-3 3-3h-11.846c-1.657 0-3 1.343-3 3v23c0 1.657 1.343 3 3 3h11.846c-1.657 0-3-1.343-3-3z" fill="#f5f8f9"/><path d="m311 303v-23c0-1.657 1.343-3 3-3h-11.846c-1.657 0-3 1.343-3 3v23c0 1.657 1.343 3 3 3h11.846c-1.657 0-3-1.343-3-3z" fill="#f5f8f9"/><path d="m311 346v-23c0-1.657 1.343-3 3-3h-11.846c-1.657 0-3 1.343-3 3v23c0 1.657 1.343 3 3 3h11.846c-1.657 0-3-1.343-3-3z" fill="#f5f8f9"/></g><path d="m169 248.5h-77c-2.761 0-5-2.239-5-5v-137c0-2.761 2.239-5 5-5h77c2.761 0 5 2.239 5 5v137c0 2.761-2.239 5-5 5z" fill="#8795de"/><path d="m119 243.5v-137c0-2.761 2.239-5 5-5h-32c-2.761 0-5 2.239-5 5v137c0 2.761 2.239 5 5 5h32c-2.761 0-5-2.239-5-5z" fill="#6c7fd8"/><g fill="#4f66d0"><path d="m81.294 120.5v5c0 2.761 2.239 5 5 5h39.412c2.761 0 5-2.239 5-5v-5c0-2.761-2.239-5-5-5h-39.412c-2.761 0-5 2.239-5 5z"/><path d="m86.294 156.5h39.412c2.761 0 5-2.239 5-5v-5c0-2.761-2.239-5-5-5h-39.412c-2.761 0-5 2.239-5 5v5c0 2.761 2.239 5 5 5z"/><path d="m86.294 182.5h39.412c2.761 0 5-2.239 5-5v-5c0-2.761-2.239-5-5-5h-39.412c-2.761 0-5 2.239-5 5v5c0 2.761 2.239 5 5 5z"/><path d="m86.294 208.5h39.412c2.761 0 5-2.239 5-5v-5c0-2.761-2.239-5-5-5h-39.412c-2.761 0-5 2.239-5 5v5c0 2.761 2.239 5 5 5z"/><path d="m86.294 234.5h39.412c2.761 0 5-2.239 5-5v-5c0-2.761-2.239-5-5-5h-39.412c-2.761 0-5 2.239-5 5v5c0 2.761 2.239 5 5 5z"/></g><g><path d="m134 263.615h-15c-2.761 0-5 2.239-5 5v20.769c0 2.761 2.239 5 5 5h15c2.761 0 5-2.239 5-5v-20.769c0-2.761-2.239-5-5-5z" fill="#26a6fe"/><path d="m125 289.385v-20.769c0-2.761 2.239-5 5-5h-11c-2.761 0-5 2.239-5 5v20.769c0 2.761 2.239 5 5 5h11c-2.761 0-5-2.239-5-5z" fill="#0593fc"/><g fill="#26a6fe"><path d="m134 307h-15c-2.761 0-5 2.239-5 5v20.769c0 2.761 2.239 5 5 5h15c2.761 0 5-2.239 5-5v-20.769c0-2.761-2.239-5-5-5z"/><path d="m134 350.385h-15c-2.761 0-5 2.239-5 5v20.769c0 2.761 2.239 5 5 5h15c2.761 0 5-2.239 5-5v-20.769c0-2.762-2.239-5-5-5z"/><path d="m171 263.615h-15c-2.761 0-5 2.239-5 5v20.769c0 2.761 2.239 5 5 5h15c2.761 0 5-2.239 5-5v-20.769c0-2.761-2.239-5-5-5z"/></g><path d="m162 289.385v-20.769c0-2.761 2.239-5 5-5h-11c-2.761 0-5 2.239-5 5v20.769c0 2.761 2.239 5 5 5h11c-2.761 0-5-2.239-5-5z" fill="#0593fc"/><path d="m171 307h-15c-2.761 0-5 2.239-5 5v20.769c0 2.761 2.239 5 5 5h15c2.761 0 5-2.239 5-5v-20.769c0-2.761-2.239-5-5-5z" fill="#26a6fe"/><path d="m125 332.769v-20.769c0-2.761 2.239-5 5-5h-11c-2.761 0-5 2.239-5 5v20.769c0 2.761 2.239 5 5 5h11c-2.761 0-5-2.238-5-5z" fill="#0593fc"/><path d="m162 332.769v-20.769c0-2.761 2.239-5 5-5h-11c-2.761 0-5 2.239-5 5v20.769c0 2.761 2.239 5 5 5h11c-2.761 0-5-2.238-5-5z" fill="#0593fc"/><path d="m171 350.385h-15c-2.761 0-5 2.239-5 5v20.769c0 2.761 2.239 5 5 5h15c2.761 0 5-2.239 5-5v-20.769c0-2.762-2.239-5-5-5z" fill="#26a6fe"/><path d="m125 376.154v-20.769c0-2.761 2.239-5 5-5h-11c-2.761 0-5 2.239-5 5v20.769c0 2.761 2.239 5 5 5h11c-2.761 0-5-2.239-5-5z" fill="#0593fc"/><path d="m162 376.154v-20.769c0-2.761 2.239-5 5-5h-11c-2.761 0-5 2.239-5 5v20.769c0 2.761 2.239 5 5 5h11c-2.761 0-5-2.239-5-5z" fill="#0593fc"/></g><path d="m315.154 214h-85c-2.761 0-5-2.239-5-5v-40c0-2.761 2.239-5 5-5h85c2.761 0 5 2.239 5 5v40c0 2.761-2.239 5-5 5z" fill="#fff"/><path d="m250 209v-40c0-2.761 2.239-5 5-5h-24.846c-2.761 0-5 2.239-5 5v40c0 2.761 2.239 5 5 5h24.846c-2.761 0-5-2.239-5-5z" fill="#f5f8f9"/><path d="m293.5 196.5h-41.693c-4.142 0-7.5-3.358-7.5-7.5 0-4.142 3.358-7.5 7.5-7.5h41.693c4.142 0 7.5 3.358 7.5 7.5 0 4.142-3.358 7.5-7.5 7.5z" fill="#bec6ed"/></g></g></svg>