<?xml version="1.0" encoding="iso-8859-1"?>
<!-- Generator: Adobe Illustrator 19.0.0, SVG Export Plug-In . SVG Version: 6.00 Build 0)  -->
<svg version="1.1" id="Capa_1" xmlns="http://www.w3.org/2000/svg" xmlns:xlink="http://www.w3.org/1999/xlink" x="0px" y="0px"
	 viewBox="0 0 512 512" style="enable-background:new 0 0 512 512;" xml:space="preserve">
<circle style="fill:#FFDC00;" cx="256" cy="256" r="256"/>
<path style="fill:#FFC000;" d="M512,256c0-6.972-0.289-13.876-0.836-20.707L377.871,102l-248.47,304.59l104.446,104.446
	C241.15,511.662,248.535,512,256,512C397.385,512,512,397.385,512,256z"/>
<polygon style="fill:#808080;" points="273.174,406.59 129.401,406.59 129.401,200.704 273.174,102 "/>
<polygon style="fill:#666666;" points="273.174,102 201.288,151.352 201.288,406.59 273.174,406.59 "/>
<rect x="273.17" y="102" style="fill:#E0E0E0;" width="104.7" height="304.59"/>
<rect x="172.04" y="329.5" style="fill:#333333;" width="58.5" height="77.09"/>
<g>
	<rect x="289.52" y="133" style="fill:#35CCFF;" width="72" height="24"/>
	<rect x="289.52" y="176" style="fill:#35CCFF;" width="72" height="24"/>
	<rect x="289.52" y="219" style="fill:#35CCFF;" width="72" height="24"/>
	<rect x="289.52" y="262" style="fill:#35CCFF;" width="72" height="24"/>
	<rect x="289.52" y="305" style="fill:#35CCFF;" width="72" height="24"/>
	<rect x="289.52" y="348" style="fill:#35CCFF;" width="72" height="24"/>
	<rect x="212.27" y="208.5" style="fill:#35CCFF;" width="39" height="39"/>
</g>
<rect x="151.31" y="208.5" style="fill:#B9EAFF;" width="39" height="39"/>
<rect x="212.27" y="266" style="fill:#35CCFF;" width="39" height="39"/>
<rect x="151.31" y="266" style="fill:#B9EAFF;" width="39" height="39"/>
<rect x="201.29" y="329.5" style="fill:#1A1A1A;" width="29.25" height="77.09"/>
<g>
</g>
<g>
</g>
<g>
</g>
<g>
</g>
<g>
</g>
<g>
</g>
<g>
</g>
<g>
</g>
<g>
</g>
<g>
</g>
<g>
</g>
<g>
</g>
<g>
</g>
<g>
</g>
<g>
</g>
</svg>
