<svg id="Capa_1" enable-background="new 0 0 512 512" height="512" viewBox="0 0 512 512" width="512" xmlns="http://www.w3.org/2000/svg"><g><g><g><g><g><g><g><circle cx="256" cy="256" fill="#a3d4ff" r="256"/></g></g></g></g></g></g><path d="m511.07 277.979-217.12-217.169-.859-.81-74.735 9.842 4.563 85.118-66.917 293.013 61.089 61.089c12.688 1.935 25.681 2.938 38.909 2.938 133.981 0 243.922-102.926 255.07-234.021z" fill="#65b1fc"/><g><path d="m355.997 447.973h-58.477l-42.054-8.254-40.986 8.254h-58.477v-303.638h199.994z" fill="#414952"/></g><g><path d="m355.997 144.335h-99.997v294.678l41.519 8.96h58.478z" fill="#23272b"/></g><g><path d="m183.513 169.747h78.487v30.909h-78.487z" fill="#4a7aff"/></g><g><path d="m256 169.747h72.487v30.909h-72.487z" fill="#2864f0"/></g><g><path d="m183.513 219.091h78.487v30.909h-78.487z" fill="#4a7aff"/></g><g><path d="m256 219.091h72.487v30.909h-72.487z" fill="#2864f0"/></g><g><path d="m183.513 268.434h78.487v30.909h-78.487z" fill="#4a7aff"/></g><g><path d="m256 268.434h72.487v30.91h-72.487z" fill="#2864f0"/></g><g><path d="m183.513 317.777h78.487v30.909h-78.487z" fill="#4a7aff"/></g><g><path d="m256 317.777h72.487v30.91h-72.487z" fill="#2864f0"/></g><g><path d="m214.48 373.692h83.04v74.28h-83.04z" fill="#fff"/></g><g><path d="m256 373.692h41.52v74.28h-41.52z" fill="#f2f6fc"/></g><g><path d="m256 45.205c-29.793 0-53.945 24.152-53.945 53.945 0 45.278 53.945 94.935 53.945 94.935s53.945-52.605 53.945-94.935c0-29.793-24.152-53.945-53.945-53.945zm0 79.416c-15.127 0-27.39-12.263-27.39-27.389 0-15.127 12.263-27.39 27.39-27.39s27.39 12.263 27.39 27.39c0 15.126-12.263 27.389-27.39 27.389z" fill="#fe6a16"/></g><g><path d="m256 45.205c-.005 0-.009 0-.014 0v24.637h.014c15.127 0 27.39 12.263 27.39 27.39 0 15.126-12.263 27.389-27.39 27.389-.005 0 .005 0 0 0v69.452c.003.003 0 .013 0 .013s53.945-52.604 53.945-94.935c0-29.795-24.152-53.946-53.945-53.946z" fill="#f24500"/></g></g></svg>