<svg height="512" viewBox="0 0 128 128" width="512" xmlns="http://www.w3.org/2000/svg"><g id="Circle_Grid" data-name="Circle Grid"><circle cx="64" cy="64" fill="#ea8953" r="64"/></g><g id="icon"><path d="m73.913 37.498h24.883v64.602h-24.883z" fill="#eeefee"/><path d="m28.664 23h47.271v79.505h-47.271z" fill="#eeefee"/><path d="m75.936 37.498h2.63v64.737h-2.63z" fill="#dbd8dd"/><path d="m33.23 26.765h9.037v9.037h-9.037z" fill="#69b0ee"/><path d="m47.782 26.765h9.037v9.037h-9.037z" fill="#69b0ee"/><path d="m62.334 26.765h9.037v9.037h-9.037z" fill="#69b0ee"/><g fill="#eeefee"><g opacity=".5"><path d="m34.729 35.802h-.604l3.895-9.037h.604z"/><path d="m37.476 35.802h-1.915l3.895-9.037h1.915z"/></g><g opacity=".5"><path d="m49.499 35.802h-.604l3.895-9.037h.604z"/><path d="m52.246 35.802h-1.915l3.895-9.037h1.915z"/></g><g opacity=".5"><path d="m64.269 35.802h-.604l3.895-9.037h.604z"/><path d="m67.016 35.802h-1.915l3.895-9.037h1.916z"/></g></g><path d="m33.23 41.027h9.037v9.037h-9.037z" fill="#69b0ee"/><path d="m47.782 41.027h9.037v9.037h-9.037z" fill="#69b0ee"/><path d="m62.334 41.027h9.037v9.037h-9.037z" fill="#69b0ee"/><g fill="#eeefee" opacity=".5"><path d="m34.729 50.064h-.604l3.895-9.037h.604z"/><path d="m37.476 50.064h-1.915l3.895-9.037h1.915z"/></g><g fill="#eeefee" opacity=".5"><path d="m49.499 50.064h-.604l3.895-9.037h.604z"/><path d="m52.246 50.064h-1.915l3.895-9.037h1.915z"/></g><g fill="#eeefee" opacity=".5"><path d="m64.269 50.064h-.604l3.895-9.037h.604z"/><path d="m67.016 50.064h-1.915l3.895-9.037h1.916z"/></g><path d="m33.23 55.29h9.037v9.037h-9.037z" fill="#69b0ee"/><path d="m47.782 55.29h9.037v9.037h-9.037z" fill="#69b0ee"/><path d="m62.334 55.29h9.037v9.037h-9.037z" fill="#69b0ee"/><g fill="#eeefee" opacity=".5"><path d="m34.729 64.326h-.604l3.895-9.036h.604z"/><path d="m37.476 64.326h-1.915l3.895-9.036h1.915z"/></g><g fill="#eeefee" opacity=".5"><path d="m49.499 64.326h-.604l3.895-9.036h.604z"/><path d="m52.246 64.326h-1.915l3.895-9.036h1.915z"/></g><g fill="#eeefee" opacity=".5"><path d="m64.269 64.326h-.604l3.895-9.036h.604z"/><path d="m67.016 64.326h-1.915l3.895-9.036h1.916z"/></g><path d="m33.23 69.552h9.037v9.037h-9.037z" fill="#69b0ee"/><path d="m47.782 69.552h9.037v9.037h-9.037z" fill="#69b0ee"/><path d="m62.334 69.552h9.037v9.037h-9.037z" fill="#69b0ee"/><g fill="#eeefee" opacity=".5"><path d="m34.729 78.589h-.604l3.895-9.037h.604z"/><path d="m37.476 78.589h-1.915l3.895-9.037h1.915z"/></g><g fill="#eeefee" opacity=".5"><path d="m49.499 78.589h-.604l3.895-9.037h.604z"/><path d="m52.246 78.589h-1.915l3.895-9.037h1.915z"/></g><g fill="#eeefee" opacity=".5"><path d="m64.269 78.589h-.604l3.895-9.037h.604z"/><path d="m67.016 78.589h-1.915l3.895-9.037h1.916z"/></g><path d="m84.163 41.027h9.037v9.037h-9.037z" fill="#69b0ee"/><g fill="#eeefee" opacity=".5"><path d="m85.661 50.064h-.603l3.895-9.037h.604z"/><path d="m88.409 50.064h-1.915l3.895-9.037h1.915z"/></g><path d="m84.163 55.29h9.037v9.037h-9.037z" fill="#69b0ee"/><g fill="#eeefee" opacity=".5"><path d="m85.661 64.326h-.603l3.895-9.036h.604z"/><path d="m88.409 64.326h-1.915l3.895-9.036h1.915z"/></g><path d="m84.163 69.552h9.037v9.037h-9.037z" fill="#69b0ee"/><g fill="#eeefee" opacity=".5"><path d="m85.661 78.589h-.603l3.895-9.037h.604z"/><path d="m88.409 78.589h-1.915l3.895-9.037h1.915z"/></g><path d="m84.163 83.814h9.037v9.037h-9.037z" fill="#69b0ee"/><g fill="#eeefee" opacity=".5"><path d="m85.661 92.851h-.603l3.895-9.037h.604z"/><path d="m88.409 92.851h-1.915l3.895-9.037h1.915z"/></g><path d="m43.905 82.207h17.668v18.342h-17.668z" fill="#62667c"/><rect fill="#575b6d" height="5.799" rx=".809" width="77.684" x="25.158" y="99.201"/></g></svg>