<svg id="Capa_1" enable-background="new 0 0 512 512" height="512" viewBox="0 0 512 512" width="512" xmlns="http://www.w3.org/2000/svg"><g><g><g><g><g><g><g><circle cx="256" cy="256" fill="#ff6c52" r="256"/></g></g></g></g></g></g><path d="m512 256c0-8.033-.37-15.979-1.094-23.822l-118.32-118.32-293.212 91.873 140.584 140.584-130.564 60.589 101.056 101.055c14.782 2.655 30.004 4.041 45.55 4.041 141.385 0 256-114.615 256-256z" fill="#f92814"/><g><path d="m402.606 406.904h-107.594l-38.352-17.264-39.672 17.264h-107.594v-219.743h293.212z" fill="#fff"/></g><g><path d="m255.644 187.16v202.922l1.016-.442 38.352 17.264h107.594v-219.744z" fill="#e9edf5"/></g><g><path d="m412.626 205.731h-313.252l20.04-91.874h273.172z" fill="#ffce00"/></g><g><path d="m392.586 113.857h-136.942v91.874h156.982z" fill="#fdba12"/></g><g><path d="m308.289 243.66h-104.579v-129.803l52.29-49.197 52.289 49.197z" fill="#fff"/></g><g><path d="m308.289 243.66h-52.289v-179l52.289 49.197z" fill="#e9edf5"/></g><g><path d="m322.332 144.233-66.332-62.41-66.333 62.41-17.13-18.208 83.463-78.528 83.463 78.528z" fill="#ffce00"/></g><g><path d="m322.332 144.233-66.332-62.41v-34.326l83.463 78.528z" fill="#fdba12"/></g><g><path d="m232.054 133.405h47.891v74.28h-47.891z" fill="#a3d4ff"/></g><g><path d="m255.644 133.405h24.302v74.28h-24.302z" fill="#65b1fc"/></g><g><path d="m232.054 243.66h47.891v63.717h-47.891z" fill="#a3d4ff"/></g><g><path d="m255.644 243.66h24.302v63.717h-24.302z" fill="#65b1fc"/></g><g><g><path d="m321.794 243.66h47.891v63.717h-47.891z" fill="#65b1fc"/></g><g><path d="m142.315 243.66h47.891v63.717h-47.891z" fill="#a3d4ff"/></g></g><g><path d="m216.988 328.88h78.024v78.024h-78.024z" fill="#636978"/></g><g><path d="m255.644 328.88h39.368v78.024h-39.368z" fill="#414952"/></g></g></svg>