<svg id="Capa_1" enable-background="new 0 0 512 512" height="512" viewBox="0 0 512 512" width="512" xmlns="http://www.w3.org/2000/svg"><g><g><g><g><g><g><g><circle cx="256" cy="256" fill="#ff6c52" r="256"/></g></g></g></g></g></g><path d="m511.778 266.757-67.146-67.146-18.631-2.633-116.498-116.498-195.649 28.4 182.725 182.725-174.722 121.182 96.458 96.458c12.299 1.815 24.882 2.755 37.685 2.755 137.781 0 250.14-108.847 255.778-245.243z" fill="#f92814"/><g><path d="m423.631 412.787h-156.947v-210.184l78.474-58.909 78.473 58.909z" fill="#dce1eb"/></g><g><path d="m423.631 202.603-78.474-58.84v268.855l78.474.169z" fill="#cdd2e1"/></g><g><path d="m360.37 227.303h36.489v58.696h-36.489z" fill="#414952"/></g><g><path d="m300.981 227.303h36.489v58.696h-36.489z" fill="#636978"/></g><g><path d="m360.37 310.701h36.489v58.696h-36.489z" fill="#414952"/></g><g><path d="m300.981 310.701h36.489v58.696h-36.489z" fill="#636978"/></g><g><path d="m426.622 223.604-81.464-61.154-81.465 61.154-18.01-23.992 99.475-74.674 99.474 74.674z" fill="#ffce00"/></g><g><path d="m444.632 199.612-99.474-74.674v37.512l81.464 61.154z" fill="#fdba12"/></g><g><path d="m301.499 412.787h-43.074l-46.747-17.869-46.747 17.869h-43.074v-315.816h179.642z" fill="#fff"/></g><g><path d="m212.424 96.971v298.233l46.001 17.583h43.074v-315.816z" fill="#e9edf5"/></g><g><path d="m113.854 80.48h195.649v28.4h-195.649z" fill="#636978"/></g><g><path d="m212.424 80.48h97.079v28.4h-97.079z" fill="#414952"/></g><g><path d="m164.931 327.837h93.493v84.95h-93.493z" fill="#636978"/></g><g><path d="m212.424 327.837h46.001v84.95h-46.001z" fill="#414952"/></g><g><path d="m145.276 138.197h132.804v35.424h-132.804z" fill="#e9edf5"/></g><g><path d="m212.424 138.197h65.656v35.424h-65.656z" fill="#cdd2e1"/></g><g><path d="m145.276 194.387h132.804v35.424h-132.804z" fill="#e9edf5"/></g><g><path d="m212.424 194.387h65.656v35.424h-65.656z" fill="#cdd2e1"/></g><g><path d="m145.276 250.576h132.804v35.424h-132.804z" fill="#e9edf5"/></g><g><path d="m212.424 250.576h65.656v35.424h-65.656z" fill="#cdd2e1"/></g></g></svg>