<svg id="Capa_1" enable-background="new 0 0 512 512" height="512" viewBox="0 0 512 512" width="512" xmlns="http://www.w3.org/2000/svg" xmlns:xlink="http://www.w3.org/1999/xlink"><linearGradient id="SVGID_1_" gradientUnits="userSpaceOnUse" x1="256" x2="256" y1="512" y2="0"><stop offset="0" stop-color="#ffc2cc"/><stop offset="1" stop-color="#fff2f4"/></linearGradient><linearGradient id="SVGID_2_" gradientUnits="userSpaceOnUse" x1="256.002" x2="256.002" y1="407" y2="105"><stop offset="0" stop-color="#ffa68d"/><stop offset="1" stop-color="#fd3a84"/></linearGradient><g><g><g><circle cx="256" cy="256" fill="url(#SVGID_1_)" r="256"/></g></g><g><g><path d="m398.122 389.235h-8.882v-26.647c0-4.91-3.973-8.882-8.882-8.882h-248.711c-4.91 0-8.883 3.973-8.883 8.882v26.647h-8.882c-4.91 0-8.883 3.973-8.883 8.883s3.973 8.882 8.883 8.882h284.239c4.91 0 8.883-3.973 8.883-8.882s-3.973-8.883-8.882-8.883zm3.123-230.381-142.12-53.295c-2.013-.746-4.233-.746-6.246 0l-142.12 53.295c-3.461 1.301-5.76 4.615-5.76 8.318v35.53c0 4.91 3.973 8.882 8.883 8.882h284.239c4.91 0 8.883-3.973 8.883-8.882v-35.53c0-3.703-2.298-7.017-5.759-8.318zm-127.478 17.202h-35.53c-4.91 0-8.882-3.973-8.882-8.883s3.973-8.882 8.882-8.882h35.53c4.91 0 8.882 3.973 8.882 8.882s-3.972 8.883-8.882 8.883zm115.472 62.177v-8.882h-266.474v8.882c0 4.91 3.973 8.882 8.883 8.882h248.709c4.91 0 8.882-3.972 8.882-8.882zm-17.765 97.707v-71.06h-53.294v71.06zm-88.824 0v-71.06h-53.295v71.06zm-88.825 0v-71.06h-53.295v71.06z" fill="url(#SVGID_2_)"/></g></g></g></svg>