<?xml version="1.0" encoding="iso-8859-1"?>
<!-- Generator: Adobe Illustrator 19.0.0, SVG Export Plug-In . SVG Version: 6.00 Build 0)  -->
<svg version="1.1" id="Capa_1" xmlns="http://www.w3.org/2000/svg" xmlns:xlink="http://www.w3.org/1999/xlink" x="0px" y="0px"
	 viewBox="0 0 436.9 436.9" style="enable-background:new 0 0 436.9 436.9;" xml:space="preserve">
<circle style="fill:#334D5C;" cx="218.45" cy="218.45" r="218.45"/>
<path style="opacity:0.1;enable-background:new    ;" d="M207.028,90.461v9.728l10.854,10.854v4.096l-74.411,49.016v172.578h-6.076
	v9.728l90.215,90.214c113.357-4.68,204.387-95.711,209.064-209.068L299.529,90.461H207.028z"/>
<polygon style="fill:#FCD462;" points="143.457,336.721 217.866,336.721 217.866,115.146 143.457,164.153 "/>
<rect x="174.93" y="164.97" style="fill:#3A556A;" width="16.753" height="14.524"/>
<polygon style="fill:#64798A;" points="174.918,179.478 174.918,164.955 191.672,164.955 "/>
<rect x="174.93" y="183.82" style="fill:#3A556A;" width="16.753" height="14.524"/>
<polygon style="fill:#64798A;" points="174.918,198.344 174.918,183.821 191.672,183.821 "/>
<rect x="196.23" y="164.97" style="fill:#3A556A;" width="16.753" height="14.524"/>
<polygon style="fill:#64798A;" points="196.223,179.478 196.223,164.955 212.977,164.955 "/>
<rect x="196.23" y="183.82" style="fill:#3A556A;" width="16.753" height="14.524"/>
<polygon style="fill:#64798A;" points="196.223,198.344 196.223,183.821 212.977,183.821 "/>
<rect x="174.93" y="202.68" style="fill:#3A556A;" width="16.753" height="14.524"/>
<polygon style="fill:#64798A;" points="174.918,217.21 174.918,202.687 191.672,202.687 "/>
<rect x="174.93" y="221.55" style="fill:#3A556A;" width="16.753" height="14.524"/>
<polygon style="fill:#64798A;" points="174.918,236.076 174.918,221.553 191.672,221.553 "/>
<rect x="174.93" y="240.06" style="fill:#3A556A;" width="16.753" height="14.524"/>
<polygon style="fill:#64798A;" points="174.918,254.592 174.918,240.069 191.672,240.069 "/>
<rect x="196.23" y="202.68" style="fill:#3A556A;" width="16.753" height="14.524"/>
<polygon style="fill:#64798A;" points="196.223,217.21 196.223,202.687 212.977,202.687 "/>
<rect x="196.23" y="221.55" style="fill:#3A556A;" width="16.753" height="14.524"/>
<polygon style="fill:#64798A;" points="196.223,236.076 196.223,221.553 212.977,221.553 "/>
<rect x="196.23" y="240.06" style="fill:#3A556A;" width="16.753" height="14.524"/>
<polygon style="fill:#64798A;" points="196.223,254.592 196.223,240.069 212.977,240.069 "/>
<g>
	<rect x="137.39" y="336.73" style="fill:#E56353;" width="156.17" height="9.731"/>
	<rect x="207.02" y="90.45" style="fill:#E56353;" width="92.5" height="9.731"/>
</g>
<rect x="174.93" y="258.22" style="fill:#3A556A;" width="16.753" height="14.524"/>
<polygon style="fill:#64798A;" points="174.918,272.743 174.918,258.22 191.672,258.22 "/>
<rect x="174.93" y="277.09" style="fill:#3A556A;" width="16.753" height="14.524"/>
<polygon style="fill:#64798A;" points="174.918,291.609 174.918,277.086 191.672,277.086 "/>
<rect x="196.23" y="258.22" style="fill:#3A556A;" width="16.753" height="14.524"/>
<polygon style="fill:#64798A;" points="196.223,272.743 196.223,258.22 212.977,258.22 "/>
<rect x="196.23" y="277.09" style="fill:#3A556A;" width="16.753" height="14.524"/>
<polygon style="fill:#64798A;" points="196.223,291.609 196.223,277.086 212.977,277.086 "/>
<rect x="174.93" y="295.94" style="fill:#3A556A;" width="16.753" height="14.524"/>
<polygon style="fill:#64798A;" points="174.918,310.475 174.918,295.952 191.672,295.952 "/>
<rect x="153.67" y="295.94" style="fill:#3A556A;" width="16.753" height="14.524"/>
<polygon style="fill:#64798A;" points="153.666,310.475 153.666,295.952 170.42,295.952 "/>
<rect x="153.67" y="277.09" style="fill:#3A556A;" width="16.753" height="14.524"/>
<polygon style="fill:#64798A;" points="153.666,291.609 153.666,277.086 170.42,277.086 "/>
<rect x="153.67" y="258.22" style="fill:#3A556A;" width="16.753" height="14.524"/>
<polygon style="fill:#64798A;" points="153.666,272.743 153.666,258.22 170.42,258.22 "/>
<rect x="153.67" y="240.06" style="fill:#3A556A;" width="16.753" height="14.524"/>
<polygon style="fill:#64798A;" points="153.666,254.592 153.666,240.069 170.42,240.069 "/>
<rect x="153.67" y="221.55" style="fill:#3A556A;" width="16.753" height="14.524"/>
<polygon style="fill:#64798A;" points="153.666,236.076 153.666,221.553 170.42,221.553 "/>
<rect x="153.67" y="202.68" style="fill:#3A556A;" width="16.753" height="14.524"/>
<polygon style="fill:#64798A;" points="153.666,217.21 153.666,202.687 170.42,202.687 "/>
<rect x="153.67" y="183.82" style="fill:#3A556A;" width="16.753" height="14.524"/>
<polygon style="fill:#64798A;" points="153.666,198.344 153.666,183.821 170.42,183.821 "/>
<rect x="153.67" y="164.97" style="fill:#3A556A;" width="16.753" height="14.524"/>
<polygon style="fill:#64798A;" points="153.666,179.478 153.666,164.955 170.42,164.955 "/>
<rect x="196.23" y="295.94" style="fill:#3A556A;" width="16.753" height="14.524"/>
<polygon style="fill:#64798A;" points="196.223,310.475 196.223,295.952 212.977,295.952 "/>
<polyline style="fill:#D5D6DB;" points="217.866,336.721 288.678,336.721 288.678,100.186 217.866,100.186 "/>
<rect x="244.87" y="163.31" style="fill:#3A556A;" width="16.753" height="14.524"/>
<polygon style="fill:#64798A;" points="244.869,177.839 244.869,163.316 261.623,163.316 "/>
<rect x="244.87" y="182.17" style="fill:#3A556A;" width="16.753" height="14.524"/>
<polygon style="fill:#64798A;" points="244.869,196.705 244.869,182.182 261.623,182.182 "/>
<rect x="266.17" y="163.31" style="fill:#3A556A;" width="16.753" height="14.524"/>
<polygon style="fill:#64798A;" points="266.173,177.839 266.173,163.316 282.927,163.316 "/>
<rect x="266.17" y="182.17" style="fill:#3A556A;" width="16.753" height="14.524"/>
<polygon style="fill:#64798A;" points="266.173,196.705 266.173,182.182 282.927,182.182 "/>
<rect x="244.87" y="201.05" style="fill:#3A556A;" width="16.753" height="14.524"/>
<polygon style="fill:#64798A;" points="244.869,215.571 244.869,201.048 261.623,201.048 "/>
<rect x="244.87" y="219.92" style="fill:#3A556A;" width="16.753" height="14.524"/>
<polygon style="fill:#64798A;" points="244.869,234.437 244.869,219.914 261.623,219.914 "/>
<rect x="244.87" y="238.42" style="fill:#3A556A;" width="16.753" height="14.524"/>
<polygon style="fill:#64798A;" points="244.869,252.953 244.869,238.43 261.623,238.43 "/>
<rect x="266.17" y="201.05" style="fill:#3A556A;" width="16.753" height="14.524"/>
<polygon style="fill:#64798A;" points="266.173,215.571 266.173,201.048 282.927,201.048 "/>
<rect x="266.17" y="219.92" style="fill:#3A556A;" width="16.753" height="14.524"/>
<polygon style="fill:#64798A;" points="266.173,234.437 266.173,219.914 282.927,219.914 "/>
<rect x="266.17" y="238.42" style="fill:#3A556A;" width="16.753" height="14.524"/>
<polygon style="fill:#64798A;" points="266.173,252.953 266.173,238.43 282.927,238.43 "/>
<rect x="244.87" y="256.58" style="fill:#3A556A;" width="16.753" height="14.524"/>
<polygon style="fill:#64798A;" points="244.869,271.104 244.869,256.581 261.623,256.581 "/>
<rect x="244.87" y="275.46" style="fill:#3A556A;" width="16.753" height="14.524"/>
<polygon style="fill:#64798A;" points="244.869,289.97 244.869,275.447 261.623,275.447 "/>
<rect x="266.17" y="256.58" style="fill:#3A556A;" width="16.753" height="14.524"/>
<polygon style="fill:#64798A;" points="266.173,271.104 266.173,256.581 282.927,256.581 "/>
<rect x="266.17" y="275.46" style="fill:#3A556A;" width="16.753" height="14.524"/>
<polygon style="fill:#64798A;" points="266.173,289.97 266.173,275.447 282.927,275.447 "/>
<rect x="244.87" y="294.3" style="fill:#3A556A;" width="16.753" height="14.524"/>
<polygon style="fill:#64798A;" points="244.869,308.836 244.869,294.313 261.623,294.313 "/>
<rect x="223.61" y="294.3" style="fill:#3A556A;" width="16.753" height="14.524"/>
<polygon style="fill:#64798A;" points="223.617,308.836 223.617,294.313 240.371,294.313 "/>
<rect x="223.61" y="275.46" style="fill:#3A556A;" width="16.753" height="14.524"/>
<polygon style="fill:#64798A;" points="223.617,289.97 223.617,275.447 240.371,275.447 "/>
<rect x="223.61" y="256.58" style="fill:#3A556A;" width="16.753" height="14.524"/>
<polygon style="fill:#64798A;" points="223.617,271.104 223.617,256.581 240.371,256.581 "/>
<rect x="223.61" y="238.42" style="fill:#3A556A;" width="16.753" height="14.524"/>
<polygon style="fill:#64798A;" points="223.617,252.953 223.617,238.43 240.371,238.43 "/>
<rect x="223.61" y="219.92" style="fill:#3A556A;" width="16.753" height="14.524"/>
<polygon style="fill:#64798A;" points="223.617,234.437 223.617,219.914 240.371,219.914 "/>
<rect x="223.61" y="201.05" style="fill:#3A556A;" width="16.753" height="14.524"/>
<polygon style="fill:#64798A;" points="223.617,215.571 223.617,201.048 240.371,201.048 "/>
<rect x="223.61" y="182.17" style="fill:#3A556A;" width="16.753" height="14.524"/>
<polygon style="fill:#64798A;" points="223.617,196.705 223.617,182.182 240.371,182.182 "/>
<rect x="223.61" y="163.31" style="fill:#3A556A;" width="16.753" height="14.524"/>
<polygon style="fill:#64798A;" points="223.617,177.839 223.617,163.316 240.371,163.316 "/>
<rect x="244.84" y="145.03" style="fill:#3A556A;" width="16.753" height="14.524"/>
<polygon style="fill:#64798A;" points="244.843,159.541 244.843,145.018 261.597,145.018 "/>
<rect x="266.15" y="145.03" style="fill:#3A556A;" width="16.753" height="14.524"/>
<polygon style="fill:#64798A;" points="266.147,159.541 266.147,145.018 282.901,145.018 "/>
<rect x="223.61" y="145.03" style="fill:#3A556A;" width="16.753" height="14.524"/>
<polygon style="fill:#64798A;" points="223.591,159.541 223.591,145.018 240.345,145.018 "/>
<rect x="244.8" y="126.7" style="fill:#3A556A;" width="16.753" height="14.524"/>
<polygon style="fill:#64798A;" points="244.817,141.242 244.817,126.72 261.571,126.72 "/>
<rect x="266.14" y="126.7" style="fill:#3A556A;" width="16.753" height="14.524"/>
<polygon style="fill:#64798A;" points="266.121,141.242 266.121,126.72 282.875,126.72 "/>
<rect x="223.57" y="126.7" style="fill:#3A556A;" width="16.753" height="14.524"/>
<polygon style="fill:#64798A;" points="223.564,141.242 223.564,126.72 240.319,126.72 "/>
<rect x="244.8" y="108.42" style="fill:#3A556A;" width="16.753" height="14.524"/>
<polygon style="fill:#64798A;" points="244.791,122.944 244.791,108.421 261.545,108.421 "/>
<rect x="266.1" y="108.42" style="fill:#3A556A;" width="16.753" height="14.524"/>
<polygon style="fill:#64798A;" points="266.095,122.944 266.095,108.421 282.849,108.421 "/>
<rect x="223.54" y="108.42" style="fill:#3A556A;" width="16.753" height="14.524"/>
<polygon style="fill:#64798A;" points="223.538,122.944 223.538,108.421 240.293,108.421 "/>
<rect x="266.17" y="294.3" style="fill:#3A556A;" width="16.753" height="14.524"/>
<polygon style="fill:#64798A;" points="266.173,308.836 266.173,294.313 282.927,294.313 "/>
<g>
</g>
<g>
</g>
<g>
</g>
<g>
</g>
<g>
</g>
<g>
</g>
<g>
</g>
<g>
</g>
<g>
</g>
<g>
</g>
<g>
</g>
<g>
</g>
<g>
</g>
<g>
</g>
<g>
</g>
</svg>
